<?xml version="1.0" encoding="UTF-8"?>
<svg id="Layer_1" data-name="Layer 1" xmlns="http://www.w3.org/2000/svg" xmlns:xlink="http://www.w3.org/1999/xlink" viewBox="0 0 1201.5 160.31">
  <defs>
    <style>
      .cls-1 {
        fill: #74b2b2;
      }

      .cls-2 {
        fill: none;
      }

      .cls-3 {
        fill: #83cbcc;
      }

      .cls-4 {
        fill: #6a9a9a;
      }

      .cls-5 {
        clip-path: url(#clippath);
      }
    </style>
    <clipPath id="clippath">
      <rect class="cls-2" width="1201.5" height="160.31"/>
    </clipPath>
  </defs>
  <g class="cls-5">
    <g>
      <g>
        <path class="cls-4" d="M-9.39,42.37h0c0,12.93,10.77,23.25,23.69,22.7,26.37-1.13,64.76-.66,60.45,12.06s-21.76,45.82,64.28,29.8c84.88-15.81,100.08-25.34,161.38-32.47,61.3-7.13,93.7-11.66,89.19,5.03-4.74,17.55.12,27.13,70.41,22.87,71.23-4.32,94.55-12.19,106.53-15.65,11.47-3.32,69.47-29.28,96.82-29.84,1.98-.04,3.94.21,5.86.69,6.86,1.73-6.87,21.5,8.61,25.61,9.11,2.42,25.3-21.06,31.93-33.87,1.05-2.03,1.87-3.79,2.37-5.14,8.6-22.87-29.13-22.35-29.13-22.35,0,0-43.33-5.31-99.98,30.38-7.8,4.92-22.61,8.45-35.95,14.17-25.3,10.86-69.03,13.55-92.87,11.39,0,0-27.1-1.01-14.52-22.24,12.4-20.93-19.01-18.65-27.61-18.34-8.6.32-94.96,5.29-123.73,13.81-27.78,8.23-121.7,29.69-140.38,25.99-1.28-.25-9.36-1.88-10.64-2.12-4.98-.92-14.08-3.79-11.55-16.91,3.27-16.92,9.03-18.59-8.83-23.77S-.66,37.64-11.06,42.62"/>
        <path class="cls-4" d="M670.38,71.3h0c-.33,8.9,3.61,17.45,10.65,22.9,9.64,7.47,24.62,15.44,41.13,10.82,83.15-23.28,100.08-25.34,161.38-32.47s93.7-11.66,89.19,5.03c-4.74,17.55.12,27.13,70.41,22.87,71.23-4.32,94.55-12.19,106.53-15.65s69.47-29.28,96.82-29.84c1.98-.04,3.94.21,5.86.69,6.86,1.73-6.87,21.5,8.61,25.61,9.11,2.42,25.3-21.06,31.93-33.87,1.05-2.03,1.87-3.79,2.37-5.14,8.6-22.87-29.13-22.35-29.13-22.35,0,0-38.03,4.98-99.98,30.38-14.35,5.88-21.42,7.83-33.95,12.72-25.65,10.01-71.02,15-94.86,12.84,0,0-27.1-1.01-14.52-22.24,12.4-20.93-19.01-18.65-27.61-18.34-8.6.32-99.52,8.37-128.93,14.34s-116.5,29.17-135.18,25.46c-1.28-.25-9.36-1.88-10.64-2.12-4.98-.92-14.08-3.79-11.55-16.91,3.27-16.92,9.03-18.59-8.83-23.77"/>
      </g>
      <g>
        <path class="cls-1" d="M-40.18,63.17c1.57-.75,5.17-1.58,10.21-2.44,28.41-4.83,102.62-10.41,117.79-6.01,17.86,5.18,12.1,6.85,8.83,23.77-2.53,13.12,6.57,15.98,11.55,16.91,1.28.24,9.37,1.86,10.64,2.12,18.69,3.7,114.62-12.24,142.39-20.46,28.77-8.52,113.12-19.02,121.72-19.33,8.6-.32,40.01-2.59,27.61,18.34-12.58,21.24,14.52,22.24,14.52,22.24,23.84,2.15,69.57,3.92,94.87-6.94,13.33-5.72,26.14-13.71,33.94-18.62,56.65-35.68,99.98-30.38,99.98-30.38,0,0,37.73-.52,29.13,22.35-.51,1.35-1.32,3.11-2.37,5.14-6.64,12.8-22.82,36.29-31.93,33.87-15.48-4.12-1.75-23.89-8.61-25.61-1.92-.48-3.88-.73-5.86-.69-27.35.56-85.35,26.52-96.82,29.84-11.98,3.47-35.3,11.33-106.53,15.65-70.29,4.26-75.15-5.33-70.41-22.87,4.51-16.7-27.89-12.17-89.19-5.03-61.3,7.13-76.5,16.67-161.38,32.47-86.04,16.02-68.49-17.38-64.28-29.8,4.31-12.72-34.08-13.19-60.45-12.06-1.62.07-3.2-.03-4.73-.29-10.72-1.78-18.97-11.1-18.97-22.41h0"/>
        <path class="cls-1" d="M641.25,91.85h0c-.33,8.9,3.61,17.45,10.65,22.9,9.64,7.47,24.62,15.44,41.13,10.82,83.15-23.28,100.08-25.34,161.38-32.47s93.7-11.66,89.19,5.03c-4.74,17.55.12,27.13,70.41,22.87s94.55-12.19,106.53-15.65c11.47-3.32,69.47-29.28,96.82-29.84,1.98-.04,3.94.21,5.86.69,6.86,1.73-6.87,21.5,8.61,25.61,9.11,2.42,25.3-21.06,31.93-33.87,1.05-2.03,1.87-3.79,2.37-5.14,8.6-22.87-29.13-22.35-29.13-22.35,0,0-43.33-5.31-99.98,30.38-7.8,4.92-20.61,12.9-33.94,18.62-25.3,10.86-71.03,9.1-94.87,6.94,0,0-27.1-1.01-14.52-22.24,12.4-20.93-19.01-18.65-27.61-18.34-8.6.32-92.95,10.81-121.72,19.33-27.78,8.23-123.71,24.17-142.39,20.46-1.28-.25-9.36-1.88-10.64-2.12-4.98-.92-14.08-3.79-11.55-16.91,3.27-16.92,9.03-18.59-8.83-23.77"/>
      </g>
      <g>
        <path class="cls-3" d="M-56.56,81.29c1.57-.75,5.17-1.58,10.21-2.44,28.41-4.83,102.62-10.41,117.79-6.01,17.86,5.18,12.1,6.85,8.83,23.77-2.53,13.12,6.57,15.98,11.55,16.91,1.28.24,9.37,1.86,10.64,2.12,18.69,3.7,114.62-12.24,142.39-20.46,28.77-8.52,113.12-19.02,121.72-19.33,8.6-.32,40.01-2.59,27.61,18.34-12.58,21.24,14.52,22.24,14.52,22.24,23.84,2.15,69.57,3.92,94.87-6.94,13.33-5.72,26.14-13.71,33.94-18.62,56.65-35.68,99.98-30.38,99.98-30.38,0,0,37.73-.52,29.13,22.35-.51,1.35-1.32,3.11-2.37,5.14-6.64,12.8-22.82,36.29-31.93,33.87-15.48-4.12-1.75-23.89-8.61-25.61-1.92-.48-3.88-.73-5.86-.69-27.35.56-85.35,26.52-96.82,29.84-11.98,3.47-35.3,11.33-106.53,15.65-70.29,4.26-75.15-5.33-70.41-22.87,4.51-16.7-27.89-12.17-89.19-5.03-61.3,7.13-76.5,16.67-161.38,32.47-86.04,16.02-68.49-17.38-64.28-29.8,4.31-12.72-34.08-13.19-60.45-12.06-1.62.07-3.2-.03-4.73-.29-10.72-1.78-18.97-11.1-18.97-22.41h0"/>
        <path class="cls-3" d="M624.87,109.97h0c-.33,8.9,3.61,17.45,10.65,22.9,9.64,7.47,24.62,15.44,41.13,10.82,83.15-23.28,100.08-25.34,161.38-32.47s93.7-11.66,89.19,5.03c-4.74,17.55.12,27.13,70.41,22.87,71.23-4.32,94.55-12.19,106.53-15.65,11.47-3.32,69.47-29.28,96.82-29.84,1.98-.04,3.94.21,5.86.69,6.86,1.73-6.87,21.5,8.61,25.61,9.11,2.42,25.3-21.06,31.93-33.87,1.05-2.03,1.87-3.79,2.37-5.14,8.6-22.87-29.13-22.35-29.13-22.35,0,0-43.33-5.31-99.98,30.38-7.8,4.92-20.61,12.9-33.94,18.62-25.3,10.86-71.03,9.1-94.87,6.94,0,0-27.1-1.01-14.52-22.24,12.4-20.93-19.01-18.65-27.61-18.34-8.6.32-92.95,10.81-121.72,19.33s-123.71,24.17-142.39,20.46c-1.28-.25-9.36-1.88-10.64-2.12-4.98-.92-14.08-3.79-11.55-16.91,3.27-16.92,9.03-18.59-8.83-23.77"/>
      </g>
    </g>
  </g>
</svg>