<?xml version="1.0" encoding="UTF-8"?>
<svg id="Layer_1" data-name="Layer 1" xmlns="http://www.w3.org/2000/svg" xmlns:xlink="http://www.w3.org/1999/xlink" viewBox="0 0 1201.5 371.56">
  <defs>
    <style>
      .cls-1 {
        fill: #74b2b2;
      }

      .cls-2 {
        fill: none;
      }

      .cls-3 {
        fill: #83cbcc;
      }

      .cls-4 {
        clip-path: url(#clippath-1);
      }

      .cls-5 {
        fill: #6a9a9a;
      }

      .cls-6 {
        clip-path: url(#clippath);
      }
    </style>
    <clipPath id="clippath">
      <rect class="cls-2" width="1201.5" height="371.56"/>
    </clipPath>
    <clipPath id="clippath-1">
      <rect class="cls-2" x="-348.63" y="-46.13" width="3130.5" height="417.69"/>
    </clipPath>
  </defs>
  <g class="cls-6">
    <g class="cls-4">
      <g>
        <path class="cls-5" d="M-373.1,64.27h0c0,33.69,28.06,60.58,61.72,59.14,68.71-2.94,168.73-1.72,157.5,31.42-11.23,33.14-56.7,119.38,167.48,77.64,221.15-41.19,260.76-66.02,420.47-84.6,159.72-18.58,244.13-30.38,232.38,13.11-12.35,45.73.31,70.69,183.45,59.59,185.59-11.26,246.35-31.76,277.56-40.78,29.88-8.65,181-76.29,252.26-77.75,5.16-.1,10.27.55,15.27,1.8,17.87,4.51-17.9,56.02,22.43,66.73,23.74,6.31,65.92-54.87,83.19-88.25,2.74-5.29,4.87-9.87,6.18-13.39,22.41-59.59-75.9-58.23-75.9-58.23,0,0-112.9-13.84-260.5,79.15-20.32,12.82-58.91,22.02-93.67,36.92-65.92,28.3-179.86,35.3-241.97,29.68,0,0-70.61-2.63-37.83-57.95,32.31-54.53-49.53-48.59-71.94-47.78-22.41.83-247.42,13.78-322.38,35.98-72.38,21.44-317.09,77.36-365.76,67.72-3.34-.65-24.39-4.9-27.72-5.52-12.98-2.4-36.69-9.87-30.09-44.06C-12.42,60.75,2.59,56.4-43.95,42.9c-46.53-13.5-306.41,9.04-333.5,22.02"/>
        <path class="cls-1" d="M-453.32,118.46c4.09-1.95,13.47-4.12,26.6-6.36,74.02-12.58,267.38-27.12,306.9-15.66,46.53,13.5,31.53,17.85,23.01,61.93-6.59,34.18,17.12,41.64,30.09,44.06,3.34.63,24.41,4.85,27.72,5.52,48.7,9.64,298.64-31.89,371-53.31,74.96-22.2,294.73-49.56,317.14-50.36,22.41-.83,104.25-6.75,71.94,47.78-32.78,55.34,37.83,57.95,37.83,57.95,62.11,5.6,181.26,10.21,247.18-18.08,34.73-14.9,68.11-35.72,88.43-48.51,147.6-92.96,260.5-79.15,260.5-79.15,0,0,98.31-1.35,75.9,58.23-1.33,3.52-3.44,8.1-6.18,13.39-17.3,33.35-59.46,94.55-83.19,88.25-40.33-10.73-4.56-62.25-22.43-66.73-5-1.25-10.11-1.9-15.27-1.8-71.26,1.46-222.38,69.1-252.26,77.75-31.21,9.04-91.97,29.52-277.56,40.78-183.14,11.1-195.8-13.89-183.45-59.59,11.75-43.51-72.67-31.71-232.38-13.11-159.72,18.58-199.32,43.43-420.47,84.6-224.18,41.74-178.45-45.28-167.48-77.64,11.23-33.14-88.8-34.37-157.5-31.42-4.22.18-8.34-.08-12.32-.76-27.93-4.64-49.43-28.92-49.43-58.39h0"/>
        <path class="cls-3" d="M-496,165.67c4.09-1.95,13.47-4.12,26.6-6.36,74.02-12.58,267.38-27.12,306.9-15.66,46.53,13.5,31.53,17.85,23.01,61.93-6.59,34.18,17.12,41.64,30.09,44.06,3.34.63,24.41,4.85,27.72,5.52,48.7,9.64,298.64-31.89,371-53.31,74.96-22.2,294.73-49.56,317.14-50.36,22.41-.83,104.25-6.75,71.94,47.78-32.78,55.34,37.83,57.95,37.83,57.95,62.11,5.6,181.26,10.21,247.18-18.08,34.73-14.9,68.11-35.72,88.43-48.51,147.6-92.96,260.5-79.15,260.5-79.15,0,0,98.31-1.35,75.9,58.23-1.33,3.52-3.44,8.1-6.18,13.39-17.3,33.35-59.46,94.55-83.19,88.25-40.33-10.73-4.56-62.25-22.43-66.73-5-1.25-10.11-1.9-15.27-1.8-71.26,1.46-222.38,69.1-252.26,77.75-31.21,9.04-91.97,29.52-277.56,40.78-183.14,11.1-195.8-13.89-183.45-59.59,11.75-43.51-72.67-31.71-232.38-13.11-159.72,18.58-199.32,43.43-420.47,84.6-224.18,41.74-178.45-45.28-167.48-77.64,11.23-33.14-88.8-34.37-157.5-31.42-4.22.18-8.34-.08-12.32-.76-27.93-4.64-49.43-28.92-49.43-58.39h0"/>
      </g>
    </g>
  </g>
</svg>